# xmcd
#
# Track frame offsets: 
#        150
#        11810
#        24375
#        34890
#        47562
#        57187
#        67722
#        80040
#        89970
#        100955
#        110902
#        121027
#        131025
#        143630
#        157130
#        167047
#
# Disc length: 2368 seconds
#
# Revision: 11
# Processed by: cddbd v1.5.2PL0 Copyright (c) Steve Scherf et al.
# Submitted via: ExactAudioCopy v0.99pb4
#
DISCID=de093e10
DTITLE=Patsy Cline - Gold [disc 1]
DYEAR=2000
DGENRE=Nashville Sound
TTITLE0=Walkin' After Midnight
TTITLE1=A Poor Man's Roses (or a Rich Man's Gold)
TTITLE2=Lovesick Blues
TTITLE3=I Fall to Pieces
TTITLE4=True Love
TTITLE5=San Antonio Rose
TTITLE6=Crazy
TTITLE7=Have You Ever Been Lonely (Have You Ever Been Blue)
TTITLE8=South of the Border (Down Mexico Way)
TTITLE9=Strange
TTITLE10=I Love You So Much It Hurts
TTITLE11=Foolin' Round
TTITLE12=Bill Bailey, Won't You Please Come Home
TTITLE13=She's Got You
TTITLE14=Heartaches
TTITLE15=Your Cheatin' Heart
EXTD=Patsy Cline [Virginia Patterson Hensley, 1932/1963]: vocals\nReco
EXTD=rded 1956-11-08/1963-02-07.\nRecordings produced by Owen Bradley,
EXTD=except "Walkin' After Midnight" and "A Poor Man's Roses".\nCompi
EXTD=lation produced by Andy McKaie.\nMastered by Doug Schwartz at Mul
EXTD=holland Music, Hollywood US-CA.\nCompilation previously released 
EXTD=as "The Ultimate Collection", UTV 560214 (2000-10-17).\n2CD: UMG/
EXTD=MCA Nashville B0004119-02 (2005-03-01), UPC 075021039605, BMG D26
EXTD=1021.
EXTT0=(Don Hecht/Alan Block)
EXTT1=(Milton DeLugg//Bob Hilliard)
EXTT2=(Cliff Friend//Irving Mills)
EXTT3=(Hank Cochran/Harlan Howard)
EXTT4=(Cole Porter)
EXTT5=(Bob Wills)
EXTT6=(Willie Nelson)
EXTT7=(Peter DeRose/George Brown)
EXTT8=(Michael Carr/Jimmy Kennedy)
EXTT9=(Mel Tillis/Fred Burch)
EXTT10=(Floyd Tillman)
EXTT11=(Harlan Howard/Buck Owens)
EXTT12=(Hughie Cannon)
EXTT13=(Hank Cochran)
EXTT14=(Al Hoffman/John Klenner)
EXTT15=(Hank Williams)
PLAYORDER=
